<svg xmlns="http://www.w3.org/2000/svg" viewBox="0 0 64 64" role="img" aria-label="DocencIA favicon">
  <defs>
    <linearGradient id="board" x1="0" y1="0" x2="0" y2="1">
      <stop offset="0" stop-color="#1f6b52" />
      <stop offset="1" stop-color="#174c3d" />
    </linearGradient>
    <linearGradient id="frame" x1="0" y1="0" x2="1" y2="1">
      <stop offset="0" stop-color="#9b6d3f" />
      <stop offset="1" stop-color="#6e4825" />
    </linearGradient>
  </defs>

  <rect x="3" y="8" width="58" height="46" rx="5" fill="url(#frame)" />
  <rect x="7" y="12" width="50" height="38" rx="3" fill="url(#board)" />

  <g fill="none" stroke="#ffffff" stroke-linecap="round" stroke-linejoin="round" stroke-width="1.7">
    <path d="M18 33h8" />
    <path d="M19 39h7" />
    <path d="M22 45h6" />
    <path d="M26 33l4-5 6 2 4-7" />
    <path d="M26 33l5 6 5-5 7 1" />
    <path d="M26 33l4-11 10 1" />
    <path d="M31 39l5-5" />
    <path d="M36 30l7 5" />
    <path d="M30 22l6 8" />
  </g>

  <g fill="#ffffff">
    <circle cx="18" cy="33" r="1.7" />
    <circle cx="19" cy="39" r="1.7" />
    <circle cx="22" cy="45" r="1.7" />
    <circle cx="26" cy="33" r="1.7" />
    <circle cx="30" cy="22" r="1.7" />
    <circle cx="36" cy="30" r="1.7" />
    <circle cx="40" cy="23" r="1.7" />
    <circle cx="43" cy="35" r="1.7" />
    <circle cx="31" cy="39" r="1.7" />
  </g>

  <path
    d="M34 46l5.3-16h5.5L50 46h-4.9l-1.1-3.9h-4L38.9 46H34zm7-11.8l-1.9 5h3.4l-1.5-5z"
    fill="#ffffff"
  />
  <rect x="51.5" y="30" width="4.6" height="16" rx="0.8" fill="#ffffff" />
</svg>
